<svg width="2077" height="2077" xmlns="http://www.w3.org/2000/svg" xmlns:xlink="http://www.w3.org/1999/xlink" xml:space="preserve" overflow="hidden"><defs><clipPath id="clip0"><rect x="1251" y="64" width="2077" height="2077"/></clipPath></defs><g clip-path="url(#clip0)" transform="translate(-1251 -64)"><path d="M2068.85 1262.29 2508.8 1262.29C2508.8 1383.77 2410.31 1482.26 2288.83 1482.26 2167.34 1482.26 2068.85 1383.77 2068.85 1262.29ZM2182.42 1042.32 2396.58 1042.32 2488.87 1152.3 2090.13 1152.3ZM1958.87 966.517 1958.87 1137.63 1903.48 1203.63C1883.95 1226.9 1849.27 1229.94 1826 1210.41 1802.73 1190.89 1799.7 1156.2 1819.22 1132.94ZM2618.79 964.909 2759.78 1132.94C2779.3 1156.2 2776.27 1190.89 2753 1210.41 2729.74 1229.94 2695.05 1226.9 2675.52 1203.63L2618.79 1136.02ZM2288.83 602.368C2410.31 602.368 2508.8 700.854 2508.8 822.341L2508.8 932.328 2068.85 932.328 2068.85 822.341C2068.85 700.854 2167.34 602.368 2288.83 602.368ZM2288.83 492.381C2116.15 492.381 1974.45 625.022 1960.07 793.974L1734.97 1062.24C1676.4 1132.04 1685.5 1236.1 1755.3 1294.67 1815.43 1345.12 1900.98 1345.36 1960.98 1299.83 1971.2 1390.06 2017.81 1469.26 2085.77 1522.39 2104.94 1568.26 2139.19 1606.25 2182.32 1630.17 2194.54 1677.59 2237.59 1712.62 2288.83 1712.62 2340.07 1712.62 2383.12 1677.59 2395.34 1630.17 2438.49 1606.25 2472.74 1568.25 2491.9 1522.38 2560.09 1469.05 2606.78 1389.49 2616.78 1298.88 2676.83 1345.36 2763.16 1345.47 2823.7 1294.67 2893.5 1236.1 2902.6 1132.04 2844.03 1062.24L2617.43 792.179C2602.2 624.085 2460.89 492.381 2288.83 492.381ZM2289.5 63.9999C2863.05 63.9999 3328 528.952 3328 1102.5 3328 1676.05 2863.05 2141 2289.5 2141 1715.95 2141 1251 1676.05 1251 1102.5 1251 528.952 1715.95 63.9999 2289.5 63.9999Z" fill-rule="evenodd"/></g></svg>