<svg width="345" height="345" xmlns="http://www.w3.org/2000/svg" xmlns:xlink="http://www.w3.org/1999/xlink" xml:space="preserve" overflow="hidden"><defs><clipPath id="clip0"><rect x="234" y="162" width="345" height="345"/></clipPath></defs><g clip-path="url(#clip0)" transform="translate(-234 -162)"><path d="M384.988 384.494C392.41 387.023 400.201 388.307 408.042 388.295 415.82 388.314 423.546 387.039 430.905 384.521 429.134 388.993 427.11 393.362 424.845 397.605 419.317 398.743 413.687 399.315 408.042 399.313 402.313 399.324 396.598 398.733 390.992 397.55 388.745 393.315 386.741 388.956 384.988 384.494ZM378.68 351.688C397.308 360.081 418.64 360.081 437.267 351.688 437.267 352.707 437.267 353.726 437.267 354.773 437.275 357.823 437.063 360.87 436.634 363.89 418.155 370.716 397.847 370.716 379.368 363.89 378.921 360.881 378.691 357.843 378.68 354.8 378.68 353.754 378.68 352.707 378.68 351.688ZM323.894 295.993C340.007 295.993 366.615 303.98 383.418 310.591L382.288 312.602 382.041 313.098C381.462 314.282 380.884 315.494 380.36 316.761L380.03 317.45C379.515 318.717 379.02 320.011 378.542 321.334 378.542 321.582 378.432 321.857 378.349 322.16 377.881 323.482 377.468 324.915 377.055 326.237 377.055 326.54 376.862 326.87 376.779 327.201 376.394 328.596 376.036 330.029 375.705 331.498 375.705 331.828 375.705 332.131 375.485 332.462L373.006 334.225C348.078 347.501 331.689 338.907 324.224 332.572 312.738 322.931 308.744 308.608 311.498 300.317 311.976 299.045 312.98 298.04 314.253 297.563 317.323 296.376 320.606 295.842 323.894 295.993ZM487.555 295.984C492.841 295.71 497.26 296.13 500.234 297.508 501.507 297.985 502.511 298.989 502.989 300.262 505.854 308.635 501.832 322.959 490.346 332.599 482.826 338.935 466.52 347.529 441.564 334.252L440.765 333.674C439.197 325.4 436.315 317.43 432.227 310.068 448.051 303.87 471.7 296.805 487.555 295.984ZM426.581 242.545C424.73 241.211 422.148 241.63 420.813 243.48 420.585 243.797 420.403 244.144 420.272 244.511L412.285 260.488C409.07 260.011 405.803 260.011 402.589 260.488L394.601 244.511C393.48 242.524 390.961 241.82 388.973 242.94 387.123 243.983 386.364 246.258 387.219 248.203L394.353 262.884C388.844 265.391 385.263 269.44 385.263 273.902 385.371 276.877 386.732 279.669 389.009 281.587 387.484 283.19 386.261 285.056 385.401 287.096 382.902 283.315 380.911 279.221 379.479 274.921 372.785 254.841 358.324 254.62 357.719 254.62 354.676 254.62 352.209 257.087 352.209 260.13 352.209 263.172 354.676 265.638 357.719 265.638 358.021 265.638 365.128 266.217 369.177 278.391 371.372 285.127 374.677 291.449 378.955 297.095 361.244 290.814 325.794 280.044 309.681 287.509 305.603 289.275 302.454 292.673 301.004 296.874 296.459 310.509 303.4 329.487 317.118 340.945 325.68 348.241 336.581 352.211 347.83 352.129 356.69 352 365.421 349.991 373.446 346.234 373.446 347.143 373.281 348.025 373.226 348.988 373.226 350.917 373.061 352.872 373.061 354.828 373.061 356.316 373.061 357.83 373.281 359.318L358.187 359.318 338.657 378.847C336.522 380.996 336.522 384.466 338.657 386.614 339.693 387.656 341.101 388.241 342.569 388.24 344.028 388.234 345.425 387.649 346.453 386.614L362.759 370.308 374.989 370.308C375.182 371.245 375.347 372.016 375.347 372.099 375.678 373.448 376.036 374.853 376.421 376.175L376.669 377.029C377 378.213 377.385 379.398 377.798 380.582 373.851 392.154 366.673 402.352 357.112 409.973 354.678 411.798 354.185 415.251 356.011 417.685 357.836 420.119 361.289 420.612 363.723 418.787 372.04 412.361 378.8 404.141 383.5 394.74 384.74 397.495 386.062 400.001 387.384 402.425 387.935 403.417 388.486 404.335 389.037 405.18L389.34 405.703C389.781 406.474 390.249 407.246 390.717 408.017L391.13 408.678 392.452 410.771 392.865 411.405 394.49 413.856 395.069 414.655 396.088 416.115 396.887 417.189 397.658 418.208 398.484 419.283 399.173 420.136 399.972 421.128 400.633 421.899 401.404 422.753C401.652 423.056 401.928 423.332 402.176 423.607 402.423 423.883 402.809 424.296 403.139 424.599L403.911 425.37 404.379 425.783 405.068 426.389 405.481 426.72 406.142 427.161 406.473 427.381 407.078 427.711 407.299 427.711C407.527 427.745 407.759 427.745 407.987 427.711 408.18 427.732 408.374 427.732 408.566 427.711L408.896 427.546C409.052 427.48 409.2 427.397 409.337 427.298L409.833 426.995 410.246 426.692 410.88 426.196C410.973 426.089 411.075 425.987 411.183 425.893 412.755 424.48 414.219 422.952 415.562 421.321L416.747 419.889 416.994 419.558 418.179 418.043 418.509 417.603 419.694 416.005 419.997 415.564 421.87 412.81 423.027 411.625 423.605 410.689C423.991 410.101 424.376 409.495 424.762 408.871L425.258 408.099 426.635 405.813 426.883 405.372C428.784 402.122 430.629 398.624 432.392 394.961 437.08 404.252 443.791 412.375 452.031 418.732 454.466 420.557 457.918 420.064 459.744 417.63 461.569 415.196 461.076 411.743 458.642 409.917 449.191 402.401 442.073 392.351 438.121 380.94 439.297 377.455 440.272 373.905 441.041 370.308L452.94 370.308 469.247 386.587C470.275 387.622 471.672 388.206 473.131 388.212 474.599 388.213 476.007 387.628 477.042 386.587 479.178 384.438 479.178 380.968 477.042 378.82L457.513 359.29 442.666 359.29C442.666 357.803 442.831 356.288 442.831 354.8 442.831 352.046 442.831 349.484 442.556 346.895 450.174 350.286 458.402 352.095 466.74 352.211 477.969 352.28 488.85 348.311 497.397 341.028 511.17 329.487 518.083 310.509 513.538 296.874 512.088 292.673 508.94 289.275 504.862 287.509 489.823 280.54 458.036 289.492 439.306 295.772 443.217 290.482 446.266 284.607 448.34 278.364 452.389 266.189 459.358 265.611 459.633 265.611 462.676 265.611 465.143 263.145 465.143 260.102 465.143 257.059 462.676 254.593 459.633 254.593 459.028 254.593 444.567 254.814 437.874 274.893 436.262 279.686 433.97 284.222 431.07 288.363 430.139 285.488 428.5 282.892 426.305 280.816 428.16 278.982 429.244 276.509 429.335 273.902 429.335 269.329 425.726 265.28 420.245 262.884L427.517 248.313C428.851 246.462 428.432 243.879 426.581 242.545ZM406.5 162C501.769 162 579 239.231 579 334.5 579 429.769 501.769 507 406.5 507 311.231 507 234 429.769 234 334.5 234 239.231 311.231 162 406.5 162Z" fill-rule="evenodd"/></g></svg>