<svg width="2077" height="2077" xmlns="http://www.w3.org/2000/svg" xmlns:xlink="http://www.w3.org/1999/xlink" xml:space="preserve" overflow="hidden"><defs><clipPath id="clip0"><rect x="1438" y="1344" width="2077" height="2077"/></clipPath></defs><g clip-path="url(#clip0)" transform="translate(-1438 -1344)"><path d="M2042.41 2296.42 2144.89 2296.42C2135.62 2326.84 2130.52 2358.92 2130.52 2392.27 2130.52 2577.9 2285.95 2728.46 2477.55 2728.46 2669.2 2728.46 2824.62 2577.9 2824.62 2392.27 2824.62 2358.92 2819.57 2326.84 2810.25 2296.42L2908.48 2296.42 2908.48 2768.03C2908.48 2792.45 2888.58 2812.32 2864.16 2812.32L2086.75 2812.32C2062.35 2812.32 2042.41 2792.45 2042.41 2768.03ZM2477.55 2162.86C2601.39 2162.86 2701.79 2260.09 2701.79 2380.14 2701.79 2500.07 2601.39 2597.37 2477.55 2597.37 2353.78 2597.37 2253.38 2500.07 2253.38 2380.14 2253.38 2260.09 2353.78 2162.86 2477.55 2162.86ZM2731.58 1948.33 2857.74 1948.33C2885.38 1948.33 2908 1971 2908 1998.66L2908 2118.91C2908 2146.59 2885.38 2169.2 2857.74 2169.2L2731.58 2169.2C2703.9 2169.2 2681.32 2146.59 2681.32 2118.91L2681.32 1998.66C2681.32 1971 2703.9 1948.33 2731.58 1948.33ZM2061.65 1824.35C1982.82 1824.35 1918.31 1888.82 1918.31 1967.65L1918.31 2797.42C1918.31 2876.22 1982.82 2940.65 2061.65 2940.65L2891.42 2940.65C2970.25 2940.65 3034.69 2876.23 3034.69 2797.42L3034.69 1967.65C3034.69 1888.82 2970.25 1824.35 2891.42 1824.35ZM2476.5 1344C3050.05 1344 3515 1808.95 3515 2382.5 3515 2956.05 3050.05 3421 2476.5 3421 1902.95 3421 1438 2956.05 1438 2382.5 1438 1808.95 1902.95 1344 2476.5 1344Z" fill-rule="evenodd"/></g></svg>