<svg width="2077" height="2077" xmlns="http://www.w3.org/2000/svg" xmlns:xlink="http://www.w3.org/1999/xlink" xml:space="preserve" overflow="hidden"><defs><clipPath id="clip0"><rect x="136" y="97" width="2077" height="2077"/></clipPath></defs><g clip-path="url(#clip0)" transform="translate(-136 -97)"><path d="M652.056 936.02C642.109 936.02 634.05 944.101 634.05 954.066L634.05 1675.64C634.05 1685.61 642.109 1693.69 652.056 1693.69L876.173 1693.69C886.119 1693.69 894.179 1685.61 894.179 1675.64L894.179 954.066C894.179 944.101 886.119 936.02 876.173 936.02ZM1446.23 918.086C1356.22 918.086 1289.68 956.867 1249.32 1000.93L1249.32 954.066C1249.32 944.101 1241.26 936.021 1231.31 936.021L1016.68 936.021C1006.73 936.021 998.673 944.101 998.673 954.066L998.673 1675.64C998.673 1685.61 1006.73 1693.69 1016.68 1693.69L1240.31 1693.69C1250.25 1693.69 1258.31 1685.61 1258.31 1675.64L1258.31 1318.63C1258.31 1198.33 1290.92 1151.46 1374.6 1151.46 1465.73 1151.46 1472.97 1226.59 1472.97 1324.82L1472.97 1675.65C1472.97 1685.62 1481.03 1693.69 1490.98 1693.69L1714.69 1693.69C1724.63 1693.69 1732.69 1685.62 1732.69 1675.65L1732.69 1279.85C1732.69 1100.96 1698.66 918.086 1446.23 918.086ZM764.195 577.306C682.648 577.306 616.306 643.723 616.306 725.359 616.306 807.032 682.648 873.473 764.195 873.473 845.677 873.473 911.965 807.027 911.965 725.359 911.969 643.723 845.677 577.306 764.195 577.306ZM1174.5 96.9999C1748.05 96.9999 2213 561.952 2213 1135.5 2213 1709.05 1748.05 2174 1174.5 2174 600.952 2174 136 1709.05 136 1135.5 136 561.952 600.952 96.9999 1174.5 96.9999Z" fill-rule="evenodd"/></g></svg>