<svg width="720" height="720" xmlns="http://www.w3.org/2000/svg" xmlns:xlink="http://www.w3.org/1999/xlink" xml:space="preserve" overflow="hidden"><defs><clipPath id="clip0"><rect x="1526" y="-118" width="720" height="720"/></clipPath></defs><g clip-path="url(#clip0)" transform="translate(-1526 118)"><path d="M1809.51 297.392 1962.02 297.392C1962.02 339.503 1927.88 373.645 1885.77 373.645 1843.65 373.645 1809.51 339.503 1809.51 297.392ZM1848.88 221.138 1923.12 221.138 1955.11 259.263 1816.89 259.263ZM1771.39 194.861 1771.39 254.178 1752.18 277.057C1745.41 285.124 1733.39 286.178 1725.33 279.407 1717.26 272.641 1716.21 260.615 1722.98 252.552ZM2000.15 194.304 2049.02 252.552C2055.79 260.615 2054.74 272.641 2046.67 279.407 2038.61 286.178 2026.59 285.124 2019.82 277.057L2000.15 253.62ZM1885.77 68.6273C1927.88 68.6273 1962.02 102.768 1962.02 144.882L1962.02 183.009 1809.51 183.009 1809.51 144.882C1809.51 102.768 1843.65 68.6273 1885.77 68.6273ZM1885.77 30.4999C1825.91 30.4999 1776.79 76.4804 1771.8 135.048L1693.77 228.044C1673.47 252.24 1676.62 288.313 1700.82 308.616 1721.66 326.105 1751.32 326.188 1772.12 310.405 1775.66 341.684 1791.82 369.139 1815.38 387.556 1822.02 403.457 1833.89 416.627 1848.85 424.919 1853.08 441.357 1868.01 453.5 1885.77 453.5 1903.53 453.5 1918.45 441.357 1922.69 424.919 1937.65 416.627 1949.52 403.454 1956.16 387.553 1979.8 369.066 1995.99 341.486 1999.45 310.076 2020.27 326.188 2050.2 326.226 2071.18 308.616 2095.38 288.313 2098.53 252.24 2078.23 228.044L1999.68 134.426C1994.4 76.1556 1945.41 30.4999 1885.77 30.4999ZM1886-118C2084.82-118 2246 43.1774 2246 242 2246 440.823 2084.82 602 1886 602 1687.18 602 1526 440.823 1526 242 1526 43.1774 1687.18-118 1886-118Z" stroke="#7F9FBF" stroke-width="3" fill="#2E3440" fill-rule="evenodd"/></g></svg>