<svg width="720" height="720" xmlns="http://www.w3.org/2000/svg" xmlns:xlink="http://www.w3.org/1999/xlink" xml:space="preserve" overflow="hidden"><defs><clipPath id="clip0"><rect x="-1124" y="486" width="720" height="720"/></clipPath></defs><g clip-path="url(#clip0)" transform="translate(1124 -486)"><path d="M-932.242 687.371C-956.135 687.371-975.5 706.735-975.5 730.627-975.5 730.627-975.5 730.641-975.5 730.641L-975.5 975.787C-975.5 975.787-975.5 975.801-975.5 975.801-975.5 991.726-962.594 1004.63-946.671 1004.63L-879.365 1004.63-879.365 841.192-764.007 927.734-648.647 841.192-648.647 1004.61-581.345 1004.61C-581.327 1004.61-581.327 1004.61-581.327 1004.61-565.405 1004.61-552.5 991.712-552.5 975.787-552.5 975.773-552.5 975.773-552.5 975.773L-552.5 730.627-552.513 730.627C-552.513 706.735-571.878 687.371-595.772 687.371-605.562 687.371-614.585 690.612-621.723 696.017L-764.007 802.741-906.291 696.017-906.178 696.1C-913.427 690.626-922.454 687.371-932.242 687.371ZM-764 486C-565.177 486-404 647.177-404 846-404 1044.82-565.177 1206-764 1206-962.823 1206-1124 1044.82-1124 846-1124 647.177-962.823 486-764 486Z" stroke="#7F9FBF" stroke-width="3" fill="#2E3440" fill-rule="evenodd"/></g></svg>