<svg width="720" height="720" xmlns="http://www.w3.org/2000/svg" xmlns:xlink="http://www.w3.org/1999/xlink" xml:space="preserve" overflow="hidden"><g transform="translate(-560 -770)"><path d="M769.521 1100.16 805.046 1100.16C801.833 1110.71 800.065 1121.83 800.065 1133.39 800.065 1197.74 853.945 1249.93 920.364 1249.93 986.8 1249.93 1040.68 1197.74 1040.68 1133.39 1040.68 1121.83 1038.93 1110.71 1035.7 1100.16L1069.75 1100.16 1069.75 1263.65C1069.75 1272.11 1062.85 1279 1054.38 1279L784.892 1279C776.433 1279 769.521 1272.11 769.521 1263.65ZM920.364 1053.86C963.294 1053.86 998.098 1087.57 998.098 1129.18 998.098 1170.76 963.294 1204.49 920.364 1204.49 877.459 1204.49 842.655 1170.76 842.655 1129.18 842.655 1087.57 877.459 1053.86 920.364 1053.86ZM1008.42 979.493 1052.16 979.493C1061.74 979.493 1069.58 987.352 1069.58 996.94L1069.58 1038.63C1069.58 1048.22 1061.74 1056.06 1052.16 1056.06L1008.42 1056.06C998.829 1056.06 991.002 1048.22 991.002 1038.63L991.002 996.94C991.002 987.352 998.829 979.493 1008.42 979.493ZM776.191 936.515C748.864 936.515 726.501 958.864 726.501 986.191L726.501 1273.83C726.501 1301.15 748.864 1323.48 776.191 1323.48L1063.83 1323.48C1091.16 1323.48 1113.5 1301.15 1113.5 1273.83L1113.5 986.191C1113.5 958.864 1091.16 936.515 1063.83 936.515ZM920 770C1118.82 770 1280 931.177 1280 1130 1280 1328.82 1118.82 1490 920 1490 721.177 1490 560 1328.82 560 1130 560 931.177 721.177 770 920 770Z" stroke="#7F9FBF" stroke-width="3" fill="#2E3440" fill-rule="evenodd"/></g></svg>