<svg width="720" height="720" xmlns="http://www.w3.org/2000/svg" xmlns:xlink="http://www.w3.org/1999/xlink" xml:space="preserve" overflow="hidden"><defs><clipPath id="clip0"><rect x="-844" y="-184" width="720" height="720"/></clipPath></defs><g clip-path="url(#clip0)" transform="translate(844 184)"><path d="M-665.107 106.849C-668.555 106.849-671.349 109.651-671.349 113.105L-671.349 363.242C-671.349 366.698-668.555 369.499-665.107 369.499L-587.416 369.499C-583.968 369.499-581.174 366.698-581.174 363.242L-581.174 113.105C-581.174 109.651-583.968 106.849-587.416 106.849ZM-389.804 100.633C-421.006 100.633-444.072 114.076-458.063 129.351L-458.063 113.105C-458.063 109.651-460.857 106.85-464.307 106.85L-538.709 106.85C-542.158 106.85-544.951 109.651-544.951 113.105L-544.951 363.242C-544.951 366.698-542.158 369.499-538.709 369.499L-461.187 369.499C-457.741 369.499-454.947 366.698-454.947 363.242L-454.947 239.483C-454.947 197.78-443.643 181.533-414.635 181.533-383.044 181.533-380.534 207.577-380.534 241.628L-380.534 363.245C-380.534 366.701-377.74 369.499-374.291 369.499L-296.741 369.499C-293.295 369.499-290.501 366.701-290.501 363.245L-290.501 226.039C-290.501 164.027-302.298 100.633-389.804 100.633ZM-626.234-17.5001C-654.502-17.5001-677.5 5.52362-677.5 33.823-677.5 62.1353-654.502 85.1673-626.234 85.1673-597.988 85.1673-575.009 62.1335-575.009 33.823-575.007 5.52362-597.988-17.5001-626.234-17.5001ZM-484-184C-285.177-184-124-22.8226-124 176-124 374.823-285.177 536-484 536-682.823 536-844 374.823-844 176-844-22.8226-682.823-184-484-184Z" stroke="#7F9FBF" stroke-width="3" fill="#2E3440" fill-rule="evenodd"/></g></svg>