<svg width="2485" height="2485" xmlns="http://www.w3.org/2000/svg" xmlns:xlink="http://www.w3.org/1999/xlink" xml:space="preserve" overflow="hidden"><g transform="translate(1106 -2115)"><path d="M866.738 3221.34C602.172 3087.98 290.074 3009.83-40.2621 3009.83-228.247 3009.83-410.291 3035.09-583.257 3082.54L-568.898 3079.15C-579.048 3082.45-590.766 3084.35-602.897 3084.35-665.614 3084.35-716.53 3033.52-716.53 2970.72-716.53 2920.13-683.439 2877.3-637.804 2862.53L-636.979 2862.29C-197.714 2732.31 526.251 2757.07 984.249 3029.48 1019.4 3050.77 1042.51 3088.81 1042.51 3132.21 1042.51 3153.59 1036.9 3173.64 1027.16 3190.97L1027.49 3190.39C1003.56 3218.86 967.992 3236.85 928.134 3236.85 905.605 3236.85 884.48 3231.08 866.077 3221.01L866.738 3221.34ZM854.359 3567.85C837.772 3595.25 808.064 3613.24 774.23 3613.24 755.663 3613.24 738.416 3607.87 723.892 3598.55L724.304 3598.79C498.277 3469.48 227.439 3393.31-61.14 3393.31-219.995 3393.31-373.404 3416.42-518.229 3459.41L-506.924 3456.53C-515.259 3459.17-524.831 3460.74-534.734 3460.74-586.64 3460.74-628.726 3418.65-628.726 3366.74-628.726 3324.74-601.247 3289.25-563.287 3277.12L-562.626 3276.96C-413.757 3232.81-242.606 3207.39-65.5963 3207.39 263.584 3207.39 572.299 3295.2 838.267 3448.77L829.52 3444.15C854.029 3459.91 870.038 3487.06 870.038 3517.92 870.038 3536.66 864.179 3553.99 854.194 3568.18L854.359 3567.93ZM705.819 3908.17C692.864 3930.62 669.015 3945.47 641.7 3945.47 626.351 3945.47 612.075 3940.77 600.274 3932.76L600.521 3932.93C403.046 3821.85 166.951 3756.41-84.3288 3756.41-228.412 3756.41-367.544 3777.95-498.589 3817.89L-488.522 3815.25C-494.05 3816.65-500.487 3817.56-507.007 3817.56-549.258 3817.56-583.504 3783.31-583.504 3741.06-583.504 3705.41-559.078 3675.46-526.069 3666.96L-525.574 3666.88C-395.107 3628.09-245.247 3605.81-90.1878 3605.81 190.552 3605.81 454.127 3678.92 682.713 3807.16L674.708 3803.04C699.63 3815.42 716.465 3840.67 716.465 3869.8 716.465 3883.99 712.504 3897.28 705.572 3908.5L705.737 3908.17ZM136.5 2120C136.5 2120 136.5 2120 136.5 2120-546.947 2120-1101 2674.05-1101 3357.5-1101 4040.95-546.947 4595 136.5 4595 819.948 4595 1374 4040.95 1374 3357.5L1374 3357.5C1371.94 2674.88 819.122 2122.06 136.748 2120L136.583 2120Z" stroke="#7F9FBF" stroke-width="10.3125" stroke-miterlimit="8" fill="#2E3440" fill-rule="evenodd"/></g></svg>