<svg width="2486" height="2486" xmlns="http://www.w3.org/2000/svg" xmlns:xlink="http://www.w3.org/1999/xlink" xml:space="preserve" overflow="hidden"><g transform="translate(-138 1333)"><path d="M1555.33-408.85C1555.33-408.85 1555.33-408.85 1555.33-408.933 1555.33-538.01 1660.17-642.576 1789.4-642.576 1918.63-642.576 2023.46-537.928 2023.46-408.933 2023.46-279.856 1918.71-175.29 1789.4-175.29 1789.4-175.29 1789.4-175.29 1789.32-175.29L1789.32-175.29C1789.32-175.29 1789.32-175.29 1789.23-175.29 1660-175.29 1555.25-279.856 1555.25-408.85 1555.25-408.85 1555.25-408.85 1555.25-408.933L1555.25-408.933ZM2100.11-408.355C2100.11-580.101 1960.63-719.33 1788.57-719.33 1616.52-719.33 1477.04-580.101 1477.04-408.355 1477.04-236.61 1616.52-97.3815 1788.57-97.3815L1788.57-97.3815C1960.54-97.629 2099.86-236.692 2100.11-408.273L2100.11-408.273ZM920.771 551.059 768.558 488.171C811.882 577.139 901.754 637.386 1005.68 637.386 1114.57 637.386 1208.08 571.279 1247.93 477.029L1248.59 475.296C1261.41 445.42 1268.93 410.593 1268.93 374.114 1268.93 229.108 1151.2 111.585 1005.93 111.585 972.445 111.585 940.448 117.858 911.014 129.164L912.833 128.587 1070.17 193.538C1140.61 223.579 1189.15 292.244 1189.15 372.133 1189.15 479.093 1102.25 565.832 995.099 565.832 968.311 565.832 942.846 560.385 919.613 550.646L920.853 551.142ZM1379.39-1327C729.782-1326.92 196.997-828.022 144.331-193.199L144-188.742 808.575 85.4231C863.805 47.2942 932.18 24.5984 1005.93 24.5984 1006.01 24.5984 1006.1 24.5984 1006.1 24.5984L1006.1 24.5984C1012.63 24.5984 1018.99 25.0109 1025.53 25.2584L1321.1-401.918 1321.1-408.025C1321.35-665.52 1530.53-874.156 1788.49-874.156 2046.61-874.156 2255.87-665.272 2255.87-407.613 2255.87-149.953 2046.61 58.931 1788.49 58.931L1777.66 58.931 1356.49 359.176C1356.49 364.54 1356.9 369.988 1356.9 375.6 1356.9 375.682 1356.9 375.765 1356.9 375.847 1356.9 569.133 1199.9 725.858 1006.26 725.858 837.016 725.858 695.718 606.107 662.894 446.906L662.481 444.678 186.662 248.008C338.875 771.662 815.107 1148 1379.31 1148 2063.98 1148 2619 593.975 2619-89.4585 2619-772.892 2063.98-1326.92 1379.31-1326.92 1379.31-1326.92 1379.23-1326.92 1379.23-1326.92L1379.23-1326.92Z" stroke="#7F9FBF" stroke-width="10.3125" stroke-miterlimit="8" fill="#2E3440" fill-rule="evenodd"/></g></svg>